<svg width="40" height="40" viewBox="0 0 40 40" fill="none" xmlns="http://www.w3.org/2000/svg">
<g id="Logo">
<g id="Vector">
<path d="M0 20C0 8.9543 8.9543 0 20 0C31.0457 0 40 8.9543 40 20C40 31.0457 31.0457 40 20 40H0V20Z" fill="#1D67FF"/>
<path d="M9.2 20.4H30.8C30.8 26.3647 25.9647 31.2 20 31.2C14.0353 31.2 9.2 26.3647 9.2 20.4Z" fill="white"/>
<path d="M18.4 12.4C18.4 14.3882 16.7882 16 14.8 16C12.8118 16 11.2 14.3882 11.2 12.4C11.2 10.4118 12.8118 8.8 14.8 8.8C16.7882 8.8 18.4 10.4118 18.4 12.4Z" fill="white"/>
<path d="M28.4 12.4C28.4 14.3882 26.7882 16 24.8 16C22.8118 16 21.2 14.3882 21.2 12.4C21.2 10.4118 22.8118 8.8 24.8 8.8C26.7882 8.8 28.4 10.4118 28.4 12.4Z" fill="white"/>
</g>
</g>
</svg>
